<?xml version="1.0" standalone="no"?>
<!DOCTYPE svg PUBLIC "-//W3C//DTD SVG 20010904//EN"
 "http://www.w3.org/TR/2001/REC-SVG-20010904/DTD/svg10.dtd">
<svg version="1.0" xmlns="http://www.w3.org/2000/svg"
 width="453.000000pt" height="620.000000pt" viewBox="0 0 453.000000 620.000000"
 preserveAspectRatio="xMidYMid meet">
<metadata>
Created by potrace 1.16, written by Peter Selinger 2001-2019
</metadata>
<g transform="translate(0.000000,620.000000) scale(0.100000,-0.100000)"
fill="#000000" stroke="none">
<path d="M555 6181 l70 -6 -106 -7 c-206 -15 -323 -75 -404 -208 -44 -72 -63
-146 -71 -276 -4 -57 -11 -104 -15 -104 -5 0 -9 -16 -9 -36 0 -21 4 -33 10
-29 7 4 9 -799 8 -2402 -1 -1324 -5 -2363 -9 -2308 -4 63 -5 12 -4 -140 2
-194 6 -250 20 -295 23 -72 54 -132 65 -125 5 3 12 0 16 -6 4 -8 3 -9 -4 -5
-18 11 -14 -10 5 -25 15 -12 16 -12 8 1 -5 8 16 -7 46 -34 29 -27 53 -53 51
-58 -3 -12 95 -56 139 -63 l34 -5 -34 11 c-18 5 -31 13 -28 16 3 3 21 -1 39
-8 27 -11 222 -15 1013 -19 l980 -6 -982 1 c-539 0 -976 -3 -970 -7 16 -10
3668 -10 3684 0 6 4 -307 7 -695 7 l-707 -1 700 6 c385 4 714 10 730 14 23 5
25 4 10 -3 l-20 -10 20 0 c46 -1 202 80 190 98 -2 4 9 21 25 36 17 16 30 25
30 21 0 -5 7 -3 15 4 21 18 19 35 -2 19 -16 -13 -17 -12 -4 3 7 10 17 15 22
12 12 -7 57 90 64 137 4 27 3 30 -4 14 -8 -15 -9 -8 -4 25 7 54 12 63 14 24 1
-16 5 -2 9 31 11 82 10 287 0 255 -4 -14 -8 1056 -9 2378 -1 1595 2 2402 9
2402 6 0 10 16 10 35 0 20 -5 35 -11 35 -9 0 -10 30 -5 108 5 85 3 118 -10
162 -38 127 -113 224 -212 274 -71 36 -79 32 -12 -5 66 -36 132 -98 167 -157
34 -58 63 -155 62 -205 -1 -37 -3 -34 -10 21 -25 171 -113 286 -274 355 -43
18 -147 35 -235 39 l-55 1 65 7 c63 6 62 7 -33 8 -63 1 -96 -2 -92 -8 4 -7
-194 -9 -587 -8 -326 0 -573 4 -548 8 26 4 -34 7 -140 7 -185 0 -185 0 -60 -7
138 -8 178 -18 262 -62 110 -58 197 -183 218 -314 6 -33 9 -97 9 -144 l-2 -85
-8 100 c-20 269 -107 399 -312 469 -61 20 -74 21 -1040 24 -617 2 -975 6 -972
12 4 6 -32 9 -92 8 -97 -2 -97 -2 -28 -7z m2025 -38 c62 -7 63 -8 25 -13 -22
-3 -56 -2 -75 2 -57 12 -1170 10 -1170 -2 0 -6 45 -10 119 -10 66 0 121 -4
123 -9 3 -8 382 -15 680 -12 99 1 126 4 122 14 -3 9 8 12 39 12 31 0 43 -4 40
-12 -4 -9 7 -13 36 -13 30 0 41 -4 41 -15 0 -12 13 -15 55 -15 30 0 55 -4 55
-10 0 -14 33 -13 48 2 9 9 12 8 12 -5 0 -10 8 -17 18 -17 24 0 66 -45 59 -63
-4 -11 0 -13 14 -10 19 5 19 7 3 24 -9 11 -13 19 -7 19 5 0 20 -12 32 -27 16
-18 19 -24 8 -20 -31 12 -30 -16 0 -42 29 -24 31 -30 28 -83 -2 -32 0 -58 6
-58 5 0 9 -7 9 -15 0 -8 -4 -15 -10 -15 -5 0 -10 -25 -10 -55 l0 -55 -600 0
-600 0 0 -40 0 -40 -85 0 -85 0 0 40 c0 30 -4 40 -16 40 -14 0 -15 10 -9 75 6
70 5 77 -25 133 -23 44 -30 66 -25 88 5 22 4 25 -4 14 -9 -13 -12 -12 -25 5
-9 11 -16 24 -16 29 0 19 -32 44 -48 39 -12 -4 -12 -1 3 10 17 14 18 16 3 17
-9 0 -18 5 -20 11 -2 6 -20 11 -41 11 -25 0 -37 5 -37 14 0 8 -3 14 -7 15 -5
0 -32 2 -62 4 -30 2 -57 9 -61 15 -5 8 -82 10 -264 8 -141 -2 -256 1 -256 5 0
5 -5 5 -12 1 -6 -4 -43 -8 -82 -9 -39 -1 -81 -7 -93 -13 -16 -9 -23 -9 -26 1
-3 7 -6 4 -6 -6 -1 -15 -3 -16 -15 -5 -18 17 -2 27 62 38 60 10 2066 13 2152
3z m-2324 -230 c-77 -101 -81 -122 -81 -483 1 -305 1 -317 24 -373 12 -31 34
-71 48 -88 33 -38 25 -48 -10 -11 -39 41 -75 120 -86 192 -14 83 -14 510 -1
580 15 80 55 158 102 201 24 22 44 39 45 39 2 0 -17 -26 -41 -57z m924 -40
c40 -28 49 -45 50 -96 0 -43 -5 -54 -34 -83 -29 -29 -41 -34 -81 -34 -40 0
-52 5 -82 35 -33 33 -35 39 -31 85 5 52 26 86 63 101 34 13 89 10 115 -8z
m-934 -386 c7 3 14 9 14 15 0 5 -4 7 -8 4 -4 -2 -8 4 -8 15 0 19 1 18 17 -3
12 -16 14 -25 7 -29 -14 -9 16 -59 35 -59 6 0 21 -7 32 -16 18 -13 18 -14 -11
-8 l-31 6 -2 -63 c-3 -96 9 -189 25 -189 8 0 13 -9 12 -24 -2 -23 2 -36 36
-106 6 -14 22 -26 34 -28 12 -2 35 -17 51 -33 29 -28 32 -29 129 -29 61 0 102
-4 104 -10 5 -17 114 -25 123 -10 5 9 4 11 -3 6 -7 -4 -12 -3 -12 2 0 6 7 12
15 16 8 3 14 2 13 -2 -3 -16 15 -42 31 -43 9 0 4 -6 -14 -14 -63 -29 -457 -13
-414 17 11 7 9 8 -6 6 -11 -2 -29 7 -40 20 -11 13 -30 24 -43 25 -13 1 -21 6
-18 14 3 7 -1 10 -10 6 -17 -6 -19 13 -1 21 6 3 1 3 -12 0 -16 -4 -21 -3 -17
5 4 6 -4 26 -17 43 -13 18 -27 47 -31 63 -5 24 -4 27 5 15 9 -13 10 -12 5 3
-3 10 -6 23 -6 28 0 6 -3 8 -7 6 -5 -3 -8 14 -7 36 6 305 8 366 11 330 3 -32
8 -41 19 -36z m2768 -482 c4 -343 9 -509 16 -508 7 2 10 -71 10 -219 0 -122
-3 -219 -6 -216 -3 4 -5 99 -4 212 0 113 -3 206 -7 206 -9 0 -8 -979 2 -988 3
-3 5 87 5 202 -1 114 1 210 4 214 3 3 6 -94 6 -216 0 -142 -4 -221 -10 -220
-6 2 -10 -366 -11 -1072 -1 -591 -4 -1217 -8 -1390 -4 -173 -8 771 -9 2099 -1
1328 0 2412 2 2410 3 -3 7 -234 10 -514z m-1334 -1427 c0 -50 -43 -113 -96
-138 -58 -28 -73 -18 -56 38 16 51 45 88 90 112 52 27 62 25 62 -12z m-207
-177 c57 -20 57 -20 115 0 75 27 138 21 192 -16 44 -30 50 -49 21 -64 -25 -14
-61 -89 -61 -129 0 -48 22 -93 64 -130 36 -31 37 -34 26 -67 -18 -55 -94 -151
-128 -163 -59 -20 -61 -17 -166 251 -55 139 -108 268 -117 288 -10 20 -15 39
-12 43 8 8 1 9 66 -13z m2885 -2306 l-3 -670 -29 -63 c-34 -73 -94 -132 -164
-159 -43 -16 -96 -18 -650 -21 l-604 -3 23 33 c29 42 34 47 26 25 -4 -9 -10
-25 -13 -35 -5 -16 -5 -16 6 0 6 9 17 15 25 12 9 -4 18 3 24 17 7 17 10 19 10
7 1 -14 12 -16 84 -13 45 1 96 6 112 9 17 4 38 7 48 7 11 0 15 5 10 12 -5 9
-3 9 8 1 22 -18 89 -23 89 -7 0 11 4 11 20 1 16 -10 24 -10 40 0 14 8 20 9 20
1 0 -7 8 -6 23 4 16 10 28 12 40 5 11 -6 17 -5 17 1 0 5 29 13 65 16 36 4 68
12 71 17 4 6 10 5 15 -3 7 -11 9 -10 9 4 0 9 3 16 8 16 16 -3 72 26 72 38 0 9
14 12 43 10 41 -2 43 -1 39 23 -5 22 -3 23 10 12 13 -10 18 -9 30 10 8 13 17
31 21 40 3 10 14 18 22 18 10 0 13 5 9 12 -4 6 -3 8 4 4 23 -14 74 17 98 59 6
11 23 26 38 35 15 8 32 26 39 39 7 14 26 32 42 41 29 16 30 18 33 103 2 73 0
87 -13 87 -8 0 -15 7 -15 15 0 9 6 12 15 9 9 -4 15 0 15 9 0 22 -29 85 -30 65
0 -10 -7 -18 -15 -18 -11 0 -15 11 -15 41 0 32 3 40 15 35 10 -3 15 1 15 13 0
21 -21 33 -67 39 -6 1 -17 26 -23 55 -17 70 -29 92 -30 50 0 -17 -5 -35 -11
-39 -7 -4 -10 4 -9 22 3 44 -1 81 -7 65 -4 -9 -16 3 -34 33 -16 26 -40 51 -53
56 -13 4 -26 16 -30 25 -4 11 -2 14 6 8 21 -12 48 -10 48 4 0 7 -9 18 -20 25
-11 7 -20 20 -20 30 0 20 -16 32 -25 18 -8 -13 -25 -13 -25 1 0 5 5 7 10 4 6
-3 10 0 10 7 0 20 -29 95 -30 78 0 -12 -3 -11 -11 3 -6 10 -8 29 -5 43 6 21 4
24 -16 21 -13 -2 -17 -2 -10 0 21 7 18 14 -38 80 -5 7 -10 21 -10 32 0 11 -4
23 -10 26 -5 3 -10 15 -10 25 0 10 -5 22 -12 26 -8 5 -9 2 -5 -9 3 -10 2 -17
-2 -17 -10 0 -41 84 -41 112 0 11 -4 17 -9 13 -5 -3 -12 3 -16 14 -3 11 -12
22 -20 25 -8 3 -15 14 -15 25 0 27 -11 52 -20 46 -5 -3 -6 4 -3 14 3 13 -2 23
-16 30 -12 7 -21 21 -21 32 0 12 -8 23 -20 26 -24 6 -26 19 -3 27 13 5 14 9 4
19 -9 9 -14 9 -20 -2 -6 -9 -10 -5 -15 16 -13 51 -30 82 -50 87 -16 4 -18 11
-13 52 3 27 1 41 -4 33 -6 -11 -9 -11 -13 1 -3 8 -15 42 -27 75 -11 33 -22 70
-22 83 -1 12 -5 22 -8 22 -5 0 -42 77 -45 96 -1 6 -10 24 -20 40 -24 36 -46
92 -49 124 -3 30 -25 80 -36 80 -4 0 -10 18 -14 40 -4 22 -11 40 -16 40 -5 0
-9 7 -9 14 0 8 -23 43 -51 78 -29 35 237 -225 590 -577 l642 -640 -3 -670z"/>
</g>
</svg>
